Coordinates
version=1
nRows=14
nColumns=33
inDegrees=yes

Units are S.I. units (second, meters, Newtons, ...)
Angles are in degrees.

endheader
time	ground_thorax_rot_x	ground_thorax_rot_y	ground_thorax_rot_z	ground_thorax_tx	ground_thorax_ty	ground_thorax_tz	clav_prot_r	clav_elev_r	scapula_abduction_r	scapula_elevation_r	scapula_upward_rot_r	scapula_winging_r	shoulder_elv_r	plane_of_elev_r	axial_rot_r	elbow_flexion_r	pro_sup_r	wrist_flex_r	wrist_dev_r	clav_prot_l	clav_elev_l	scapula_abduction_l	scapula_elevation_l	scapula_upward_rot_l	scapula_winging_l	shoulder_elv_l	plane_of_elev_l	axial_rot_l	elbow_flexion_l	pro_sup_l	wrist_flex_l	wrist_dev_l
      2.35000000	     -7.25738251	      4.41611987	     -2.27196745	     -0.07376229	      1.04046382	     -0.03408915	     -9.37050129	      9.75363816	     14.47573813	      2.18603519	     45.00000000	    -12.48323697	     70.53087234	     16.99132667	    -40.08951053	     87.49658080	     56.11143478	     11.71582890	    -16.08118637	      8.23120508	      7.36900002	    -27.66829409	     -5.46156573	     17.99097478	     13.60180094	     92.38844221	     71.28083180	     43.18744112	     69.25247613	     35.69345510	    -28.30954236	    -24.99999983
      2.36000000	     -7.28452220	      4.69193014	     -2.26834617	     -0.07274886	      1.04083480	     -0.03392901	     -9.31714378	     10.16609549	     14.46530264	      2.51932859	     45.00000000	    -12.54689754	     71.68402282	     17.69850539	    -40.63747432	     84.99353457	     56.00650865	     11.37469282	    -15.67389957	      8.12569924	      7.59598006	    -27.63687682	     -5.55833013	     18.28801541	     13.62935715	     92.54354247	     71.31242907	     43.40517203	     68.69771041	     35.43873505	    -27.97727393	    -24.99999983
      2.37000000	     -7.42557827	      4.90955739	     -2.51762230	     -0.07123645	      1.04153600	     -0.03384315	     -9.57041962	     10.15310722	     13.99447233	      2.50157699	     45.00000000	    -12.49146495	     72.81984045	     18.92591102	    -41.28990562	     82.25813565	     55.35042244	     10.85051723	    -15.48373370	      7.69506273	      7.58279505	    -27.14403253	     -5.42876238	     18.71573302	     13.44751487	     93.19910966	     71.47256497	     43.76126312	     68.06591495	     34.73265176	    -27.03941448	    -24.99999983
      2.38000000	     -7.44805866	      5.29439443	     -2.20561041	     -0.07022382	      1.04196718	     -0.03378021	     -9.51073036	     10.70179445	     13.95492796	      2.94488569	     45.00000000	    -12.56688436	     73.76014230	     19.38219347	    -41.58778750	     79.76480805	     55.30494002	     10.54367311	    -15.00329313	      7.70028262	      7.83536227	    -27.03389630	     -5.66892866	     18.61616491	     13.42844513	     93.22654540	     71.74707656	     43.99829407	     67.60051965	     34.54687378	    -26.79636445	    -24.98767560
      2.39000000	     -7.48914273	      5.57404891	     -2.18150107	     -0.06922859	      1.04228286	     -0.03364759	     -9.45843292	     11.12252080	     13.93329331	      3.28483878	     45.00000000	    -12.61918025	     74.94700328	     20.02700841	    -42.12528182	     77.10948698	     55.10911885	     10.10466109	    -14.47170239	      7.59545513	      8.05117083	    -26.92986022	     -5.79113089	     18.80520010	     13.42192639	     93.38576002	     71.81925653	     44.13920334	     67.21562257	     34.30724801	    -26.44074731	    -24.92715995
      2.40000000	     -7.54265976	      5.87043157	     -2.14911439	     -0.06814869	      1.04268837	     -0.03357076	     -9.46859951	     11.49079375	     13.80726919	      3.58091431	     45.00000000	    -12.65095504	     76.12728942	     20.67647108	    -42.59086469	     74.41510735	     54.80963286	      9.61293480	    -13.91629550	      7.44633049	      8.20497555	    -26.72009931	     -5.88046222	     18.94495016	     13.35826757	     93.56526293	     71.95514017	     44.26813313	     66.87540245	     34.02317267	    -26.00145950	    -24.82884615
      2.41000000	     -7.62205609	      6.14852960	     -2.10363887	     -0.06708685	      1.04306916	     -0.03355813	     -9.47221907	     11.86110064	     13.69082356	      3.87846009	     45.00000000	    -12.68042402	     77.27214405	     21.31240700	    -43.05601245	     71.72045687	     54.47932430	      9.09608097	    -13.34549836	      7.31590586	      8.35883096	    -26.49050760	     -5.99294793	     19.00712786	     13.29207576	     93.74535161	     72.15996807	     44.35017846	     66.56141316	     33.76124825	    -25.55825085	    -24.68180680
      2.42000000	     -7.75010725	      6.40335497	     -2.42654680	     -0.06523999	      1.04368977	     -0.03348567	     -9.84603707	     11.70634463	     13.02934870	      3.74372981	     45.00000000	    -12.59464432	     78.74075416	     22.54613012	    -43.60806717	     68.72213751	     53.35614908	      8.27728770	    -12.87605620	      6.76267612	      8.16373142	    -25.80282655	     -5.72150931	     19.42641927	     13.02066544	     94.36639685	     72.37425706	     44.48354600	     66.28312972	     33.16990828	    -24.41290266	    -24.39401065
      2.43000000	     -7.83661082	      6.74625883	     -2.25018990	     -0.06412707	      1.04396676	     -0.03338431	     -9.88673076	     12.16860935	     12.80790001	      4.11272275	     45.00000000	    -12.61828170	     79.79814392	     23.08029368	    -43.94740852	     66.00323488	     52.97619369	      7.84635615	    -12.37972866	      6.67294863	      8.37745888	    -25.53237134	     -5.92685654	     19.34960067	     12.93432247	     94.59377050	     72.58671187	     44.62143282	     66.15826020	     32.96430373	    -24.00892562	    -24.30580768
      2.44000000	     -7.89999090	      7.09003421	     -2.06449489	     -0.06322384	      1.04423303	     -0.03342083	     -9.84438069	     12.70852131	     12.71983437	      4.55069741	     45.00000000	    -12.66402588	     80.85166737	     23.43597760	    -44.26028148	     63.36206588	     52.74780025	      7.40443464	    -11.74772771	      6.66162869	      8.59886398	    -25.36073732	     -6.15611002	     19.20679823	     12.88209417	     94.67320055	     72.81281176	     44.70404914	     66.06119117	     32.82003572	    -23.76839743	    -24.20049395
      2.45000000	     -7.94184373	      7.36082607	     -2.13621684	     -0.06206762	      1.04434454	     -0.03329335	     -9.90481515	     13.09901232	     12.47766137	      4.86363371	     45.00000000	    -12.67401741	     82.29454861	     24.00292143	    -44.59721830	     60.56265041	     52.21954275	      6.80620736	    -10.99252283	      6.47274449	      8.71528335	    -25.09632086	     -6.20939766	     19.36648351	     12.79941914	     94.93567186	     72.81401216	     44.67372858	     66.08767362	     32.60106971	    -23.33483742	    -24.06206892
      2.46000000	     -8.05213679	      7.67735301	     -2.03865074	     -0.06111284	      1.04465133	     -0.03337370	     -9.89511797	     13.52704988	     12.35315266	      5.20880133	     45.00000000	    -12.69283531	     83.38621809	     24.37203739	    -44.93870820	     57.96141561	     51.80920201	      6.26742112	    -10.29504177	      6.42178650	      8.84850702	    -24.85552387	     -6.37296578	     19.20759938	     12.71288788	     95.06455897	     73.10757668	     44.68505439	     66.05484934	     32.42562890	    -23.00829987	    -23.93516613
      2.47000000	     -8.16190657	      7.99323520	     -2.30869746	     -0.05943275	      1.04502914	     -0.03337423	    -10.22422072	     13.46104508	     11.74342215	      5.14536261	     45.00000000	    -12.63162216	     84.95992497	     25.24390228	    -45.18720250	     55.10295649	     50.45686788	      5.44328619	     -9.49992476	      5.98128827	      8.58776952	    -24.26314293	     -6.09867625	     19.44371132	     12.47857458	     95.52787403	     73.36392873	     44.66922092	     66.05676370	     32.00627094	    -22.04894191	    -23.68176300
      2.48000000	     -8.29055167	      8.28936902	     -2.06127702	     -0.05868461	      1.04517358	     -0.03343011	    -10.16567657	     14.07262353	     11.64376955	      5.64130908	     45.00000000	    -12.65982121	     85.83898866	     25.42676685	    -45.34372664	     52.64709659	     50.25034732	      5.05798060	     -8.87181135	      6.02475809	      8.88179981	    -24.05362216	     -6.43866308	     19.14053136	     12.40688400	     95.59791626	     73.58625642	     44.65681266	     66.18660770	     31.90232929	    -21.90943361	    -23.66996377
